# xmcd
#
# Track frame offsets: 
#        150
#        19131
#        36581
#        55910
#        75082
#        90663
#        109629
#        130633
#        150137
#        171953
#
# Disc length: 2494 seconds
#
# Revision: 8
# Processed by: cddbd v1.5.2PL0 Copyright (c) Steve Scherf et al.
# Submitted via: ExactAudioCopy v1.0b3
#
DISCID=6909bc0a
DTITLE=George Benson - Irreplaceable
DYEAR=2003
DGENRE=Jazz - Smooth
TTITLE0=Six Play
TTITLE1=Whole Man
TTITLE2=Irreplaceable
TTITLE3=Loving Is Better Than Leaving
TTITLE4=Strings of Love
TTITLE5=Cell Phone
TTITLE6=Black Rose
TTITLE7=Stairway To Love
TTITLE8=Reason For Breathing
TTITLE9=Missing You
EXTD=YEAR: 2003
EXTT0=
EXTT1=
EXTT2=
EXTT3=
EXTT4=
EXTT5=
EXTT6=
EXTT7=
EXTT8=
EXTT9=
PLAYORDER=
